<svg xmlns="http://www.w3.org/2000/svg" xmlns:xlink="http://www.w3.org/1999/xlink" id="body_1" viewBox="135.29 148.14 240.07 85.58">

<g transform="matrix(0.5 0 0 0.5 0 0)">
	<g transform="matrix(0.768 0 0 0.768 128 0)">
	</g>
    <path transform="matrix(0.768 0 0 0.768 128 0)" d="M228.06 461.69C 228.06 464.08 230.76 465.42 232.69 464.01C 242.09 457.18 253.34 452.78 264.97 452.78C 266.8 452.78 268.9 452.78 270.73 453.31C 295.86 456.45 322.56 475.3 327.27 503.57C 328.32 508.54 328.84 513.52 328.84 519.28L328.84 519.28L328.84 603.02C 328.84 604.63 327.54 605.93 325.93 605.93L325.93 605.93L289.6 605.93C 288 605.93 286.7 604.63 286.69 603.03L286.69 603.03L286.44 520.33C 286.44 502.53 275.71 488.92 258.17 488.92C 241.42 488.92 228.07 502.5299 228.07 520.33L228.07 520.33L228.07 603.02C 228.07 604.6299 226.77 605.9299 225.16 605.9299L225.16 605.9299L188.57 605.9299C 186.96 605.9299 185.66 604.6299 185.66 603.02L185.66 603.02L185.66 388.68C 185.66 387.07 186.96 385.77 188.57 385.77L188.57 385.77L225.16 385.77C 226.77 385.77 228.07 387.07 228.07 388.68L228.07 388.68L228.07 461.69L228.06 461.69z" stroke="none" fill="#0E1344" fill-rule="nonzero"/>
	<g transform="matrix(0.768 0 0 0.768 128 0)">
	</g>
    <path transform="matrix(0.768 0 0 0.768 128 0)" d="M483.97 565.35C 485.8 565.7599 486.79 567.77 485.96 569.45C 476.57 588.45 456.46 608.54 418.13 608.54C 379.38 608.54 340.38 578.7 340.38 530.79C 340.38 484.45 376.77 453.04 415.25 453.04C 463.07 453.04 489.18 486.12 490.1 539.88C 490.13 541.5 488.8 542.83 487.17 542.83L487.17 542.83L387.46 542.83C 385.53 542.83 384.12 544.68 384.64 546.54C 388.68 561.0701 402.15 571.22 417.86 572.67C 430.61 573.92 443.6 568.96 451.35 559.6201C 452.04 558.79 453.13 558.4301 454.18 558.67L454.18 558.67L483.97 565.35zM445.05 514.04C 446.92 514.04 448.33 512.31 447.9 510.49C 444.96 498.04 433 486.03 416.03 486.03C 399.89 486.03 389.08 496.45 385.41 510.34C 384.92 512.21 386.3 514.04 388.23 514.04L388.23 514.04L445.05 514.04z" stroke="none" fill="#0E1344" fill-rule="nonzero"/>
	<g transform="matrix(0.768 0 0 0.768 128 0)">
	</g>
    <path transform="matrix(0.768 0 0 0.768 128 0)" d="M644.18 565.35C 646.01 565.7599 647 567.77 646.17 569.45C 636.78 588.45 616.67 608.54 578.34 608.54C 539.6 608.54 500.59 578.7 500.59 530.79C 500.59 484.45 536.98 453.04 575.46 453.04C 623.28 453.04 649.39 486.12 650.3099 539.88C 650.34 541.5 649.0099 542.83 647.3799 542.83L647.3799 542.83L547.6799 542.83C 545.7499 542.83 544.3399 544.68 544.8599 546.54C 548.89 561.0701 562.3699 571.22 578.0899 572.67C 590.8399 573.92 603.8299 568.96 611.5799 559.6201C 612.2699 558.79 613.3599 558.4301 614.4099 558.67L614.4099 558.67L644.18 565.35zM605.26 514.04C 607.13 514.04 608.54 512.31 608.11 510.49C 605.17 498.04 593.22 486.03 576.24 486.03C 560.1 486.03 549.29 496.45 545.62 510.34C 545.13 512.21 546.51 514.04 548.44 514.04L548.44 514.04L605.26 514.04z" stroke="none" fill="#0E1344" fill-rule="nonzero"/>
	<g transform="matrix(0.768 0 0 0.768 128 0)">
	</g>
    <path transform="matrix(0.768 0 0 0.768 128 0)" d="M758.32 599.74L664.14 498.34C 653.67 487.07 654.32 469.45 665.59 458.98C 676.86 448.51 694.48 449.16 704.95 460.43L704.95 460.43L799.13 561.83C 809.6 573.1 808.95 590.72 797.68 601.19C 786.41 611.66 768.79 611.01 758.32 599.74z" stroke="none" fill="#5565F9" fill-rule="nonzero"/>
	<g transform="matrix(0.768 0 0 0.768 128 0)">
	</g>
    <path transform="matrix(0.768 0 0 0.768 128 0)" d="M663.75 560.92C 653.22 572.13 653.78 589.76 664.99 600.29C 676.2 610.82 693.83 610.2599 704.36 599.05L704.36 599.05L727.12 574.81L689.12 533.91L663.75 560.92z" stroke="none" fill="#5565F9" fill-rule="nonzero"/>
	<g transform="matrix(0.768 0 0 0.768 128 0)">
	</g>
    <path transform="matrix(0.768 0 0 0.768 128 0)" d="M777.82 451.68C 762.12 451.79 749.48 465.08 749.59 481.35C 749.7 497.62 762.52 510.72 778.22 510.61C 793.92 510.5 806.5601 497.21 806.45 480.94C 806.34 464.66 793.52 451.56 777.82 451.68z" stroke="none" fill="#5565F9" fill-rule="nonzero"/>
	<g transform="matrix(0.550272 -0.5357568 0.5357568 0.550272 39.68299 521.3691)">
	</g>
    <path transform="matrix(0.550272 -0.5357568 0.5357568 0.550272 39.68299 521.3691)" d="M754.15 480.9C 754.15 467.9821 764.6758 457.51 777.66 457.51C 790.6442 457.51 801.17 467.9821 801.17 480.9C 801.17 493.818 790.6442 504.29 777.66 504.29C 764.6758 504.29 754.15 493.818 754.15 480.9" stroke="none" fill="#B0B8FF" fill-rule="nonzero"/>
	<g transform="matrix(0.768 0 0 0.768 128 0)">
	</g>
    <path transform="matrix(0.768 0 0 0.768 128 0)" d="M777.68 460.27C 766.66 460.35 757.78 469.68 757.86 481.11C 757.94 492.54 766.94 501.73 777.96 501.65C 788.99 501.57 797.86 492.24 797.78 480.81C 797.7 469.39 788.7 460.19 777.68 460.27zM777.28 470.45C 775.42 471.22 773.41 472.61 771.59 474.52C 769.77 476.43 768.46 478.53 767.7401 480.47C 767.0801 482.27 764.7401 482.95 763.4 481.62C 763.39 481.61 763.38 481.6 763.37 481.59C 761.21 479.38 762.79 474.07 766.91 469.75C 771.03 465.42 776.12 463.71 778.29 465.92C 778.3 465.9301 778.31 465.94 778.32 465.95C 779.62 467.31 779 469.74 777.28 470.45zM789.6 492.93C 787.09 495.57 784.33 496.98 783.45 496.07C 783.22 495.84 783.15 495.47 783.2 495.02C 783.2499 494.52 783.78 494 784.21 493.76C 785.28 493.18 786.5099 492.22 787.7 490.98C 788.8799 489.74 789.79 488.44 790.34 487.33C 790.5599 486.88 791.0599 486.33 791.54 486.26C 791.98 486.2 792.33 486.28 792.56 486.51C 793.43 487.41 792.12 490.29 789.6 492.93z" stroke="none" fill="#0E1344" fill-rule="nonzero"/>
</g>
</svg>